<svg version="1.1" id="Layer_1" xmlns="http://www.w3.org/2000/svg" xmlns:xlink="http://www.w3.org/1999/xlink" x="0px" y="0px"
	 width="100%" viewBox="0 0 768 544" enable-background="new 0 0 768 544" xml:space="preserve">
<path fill="#000000" opacity="1.000000" stroke="none" 
	d="
M495.023560,259.047302 
	C493.916595,253.762161 491.281219,249.105621 488.958801,244.321457 
	C487.979248,242.303635 486.537750,241.781448 484.150818,241.800812 
	C454.159302,242.044159 424.163574,242.347183 394.175171,242.035599 
	C385.509827,241.945557 382.196594,233.688522 376.981445,228.515930 
	C378.774078,226.075226 380.782471,226.767990 382.479309,226.766251 
	C412.143097,226.735916 441.807007,226.763412 471.470764,226.826492 
	C473.625061,226.831070 475.781525,227.178467 477.931427,227.416534 
	C479.544434,227.595169 481.235260,227.524994 481.417999,225.579681 
	C481.811035,221.395279 484.746368,221.681503 487.624664,221.690857 
	C501.789398,221.736862 515.955750,221.676590 530.117920,221.892014 
	C534.468018,221.958191 536.394897,221.061859 536.995056,216.011642 
	C538.639954,202.169830 541.266113,188.446259 543.421387,174.662994 
	C545.880798,158.935364 555.320435,149.935730 571.160095,146.235977 
	C568.893188,145.353378 567.097046,144.848312 565.485229,143.995041 
	C555.017334,138.453247 551.927856,132.640381 553.320618,120.800751 
	C553.726624,117.349251 553.433289,114.407333 551.270020,111.406342 
	C548.297180,107.282150 549.459778,102.492798 550.486572,97.960014 
	C550.850647,96.352524 551.981995,94.867729 550.383545,93.389816 
	C546.311096,89.624443 546.958008,85.024841 548.164612,80.402573 
	C548.736389,78.212189 548.831787,76.093178 547.968079,74.041084 
	C546.270813,70.008720 547.040833,66.358002 548.936707,62.555420 
	C551.883728,56.644520 553.394165,55.817261 559.343140,58.446003 
	C566.478882,61.599186 573.713867,62.995842 581.643738,62.262005 
	C588.377930,61.638817 595.275269,61.005478 602.054016,62.440659 
	C605.338867,63.136120 608.820496,63.968071 610.962402,66.612480 
	C615.200317,71.844627 619.681335,76.589439 625.892944,79.555275 
	C628.007812,80.565056 628.106873,83.057327 628.349182,85.264771 
	C629.323486,94.141586 627.851746,102.879166 626.816040,111.622742 
	C626.320190,115.808525 624.788086,119.657074 620.883179,122.141693 
	C619.494507,123.025269 618.291199,124.564774 618.814514,126.371376 
	C619.348267,128.214111 621.157898,128.658096 622.871704,128.694077 
	C627.636353,128.794083 630.388062,131.647369 632.649353,135.412170 
	C635.129761,139.541794 637.689453,143.630310 640.381714,147.624146 
	C642.788452,151.194427 646.304565,152.584564 650.614197,152.863098 
	C661.859985,153.589874 673.202881,153.557175 683.271729,160.229919 
	C693.938293,167.298767 699.850037,176.815186 700.327393,189.565308 
	C700.894104,204.702927 702.500305,219.742401 703.945251,234.809265 
	C704.816284,243.892273 705.546021,253.152481 704.145752,262.218353 
	C702.756897,271.210388 695.837524,275.760712 688.190186,279.355011 
	C685.790771,280.482727 681.205200,280.179657 681.742432,283.623352 
	C682.514099,288.570251 680.941284,294.695374 686.236084,298.198151 
	C696.699158,305.119965 701.356140,314.553833 701.240417,327.247131 
	C700.877258,367.073639 701.090332,406.905212 700.989319,446.734589 
	C700.977295,451.492065 701.788452,455.754395 704.096619,460.079102 
	C707.950623,467.300232 707.573853,475.853058 711.226868,483.975891 
	C703.393127,484.325623 696.310608,484.879578 689.225891,484.908722 
	C674.404785,484.969666 659.582336,484.676117 644.760803,484.703186 
	C640.747437,484.710541 641.693848,481.978851 641.669983,479.869324 
	C641.417175,457.550140 641.172791,435.230499 641.048401,412.910339 
	C640.942566,393.912842 641.012634,374.914398 640.971558,355.916473 
	C640.956055,348.757965 640.913818,348.912415 633.998169,348.932739 
	C606.834961,349.012604 579.671509,348.986389 552.508118,349.000061 
	C544.587280,349.004059 544.751587,349.315979 544.865356,357.221405 
	C545.177063,378.881287 545.105530,400.547180 545.114380,422.210754 
	C545.122131,441.208618 544.926880,460.207306 545.071106,479.203766 
	C545.102295,483.317413 543.640259,485.150269 539.674255,485.045013 
	C526.376099,484.692108 513.096191,484.237549 499.771332,484.628387 
	C487.987396,484.974030 476.165375,486.067474 464.362732,484.687042 
	C462.577484,484.478271 460.681213,484.751953 458.837677,482.951019 
	C462.670563,477.034363 467.181702,471.914276 474.430969,470.299744 
	C479.563873,469.156555 483.426453,467.486694 483.483032,461.189514 
	C483.508453,458.363098 485.292847,455.440887 488.058716,454.460693 
	C491.825623,453.125702 491.931305,450.504517 491.960754,447.369659 
	C492.137512,428.545624 492.296936,409.720428 492.681030,390.900085 
	C492.763580,386.855530 491.613190,385.325623 487.375671,385.340576 
	C447.386932,385.481781 407.397095,385.245117 367.410278,385.958801 
	C361.149109,386.070587 354.794128,386.836761 348.393188,384.879944 
	C349.191589,380.538605 353.479523,379.568573 355.427948,376.659210 
	C358.988556,371.342621 363.901306,370.454346 370.048218,370.503815 
	C408.875702,370.816437 447.706573,370.721802 486.536316,370.691803 
	C488.531036,370.690247 491.547577,371.729309 492.149292,368.918793 
	C492.894897,365.436310 493.568054,361.624725 491.780548,358.214081 
	C491.006836,356.737823 489.065948,357.311157 487.601685,357.311157 
	C453.271667,357.310730 418.941681,357.323700 384.611664,357.333069 
	C383.445435,357.333374 382.274353,357.386078 381.114227,357.299072 
	C379.804779,357.200867 378.284485,357.267639 377.688507,355.763275 
	C377.083984,354.237335 378.266388,353.312531 379.197784,352.363556 
	C379.547943,352.006744 379.946503,351.683350 380.233704,351.280975 
	C385.754395,343.546387 393.030151,341.222900 402.623962,341.450867 
	C430.772339,342.119873 458.947388,341.590576 487.109039,341.849091 
	C492.237610,341.896179 492.895203,339.643524 492.730164,335.521423 
	C492.572968,331.596130 493.299530,327.977783 487.085388,328.171906 
	C464.105011,328.889801 441.099823,327.816467 418.114288,328.865784 
	C413.992401,329.053955 409.812866,329.339355 405.820801,327.738403 
	C408.884247,318.940979 418.498993,312.782471 428.199646,313.201050 
	C448.686310,314.085052 469.183319,313.443146 489.675201,313.579071 
	C492.183594,313.595703 494.249054,313.078522 495.619171,310.772369 
	C498.215607,306.402161 501.858521,302.975769 505.841705,299.924652 
	C508.722351,297.718109 508.732971,295.551117 506.663422,292.716522 
	C504.114380,289.225037 501.929565,285.469238 499.545349,281.855347 
	C497.614319,278.928375 496.899384,275.955292 498.573730,272.727692 
	C502.655975,272.836243 500.641418,276.859528 503.559265,278.956268 
	C501.658325,271.358154 498.819336,265.323303 495.208405,259.259766 
	C495.004364,259.010956 495.023560,259.047302 495.023560,259.047302 
M641.496643,283.740173 
	C653.482178,281.927551 665.524841,280.424133 677.438538,278.222809 
	C691.802368,275.568695 702.485229,270.183350 700.961304,249.394562 
	C699.503784,229.511337 697.160645,209.699707 696.421265,189.745987 
	C695.822815,173.598495 686.148376,164.131149 671.362976,159.078262 
	C664.766785,156.824005 657.952637,156.481064 651.170715,156.446381 
	C643.894836,156.409149 638.754578,153.601181 635.303040,147.246140 
	C633.558105,144.033249 631.469421,141.003784 629.481323,137.926788 
	C625.280029,131.424530 622.749512,130.875931 615.895203,134.683609 
	C607.457825,139.370697 599.104309,144.239182 590.451843,148.495255 
	C586.293213,150.540894 585.514099,152.754807 587.360840,156.725906 
	C588.381165,158.919968 590.124390,161.314087 588.044495,164.195435 
	C585.870239,163.317139 585.280029,161.558304 584.303040,160.059280 
	C581.913330,156.392517 582.807068,149.744110 578.171082,148.924377 
	C574.075562,148.200195 569.342896,151.052795 564.898743,152.350723 
	C564.102112,152.583359 563.320496,152.892059 562.565735,153.239120 
	C556.342957,156.100662 551.558716,160.862518 549.654358,167.158859 
	C544.634155,183.757675 543.273315,201.076248 540.929016,218.188583 
	C540.567139,220.829773 541.689636,221.880798 544.236816,221.843689 
	C548.400452,221.783020 552.565491,221.823532 556.729248,221.764511 
	C566.807251,221.621628 566.461121,221.593018 566.897095,211.795517 
	C567.255371,203.741287 565.279785,197.103714 558.916565,191.857162 
	C557.436890,190.637192 555.292664,189.250076 556.005798,186.597351 
	C556.398071,186.455841 556.733643,186.203400 556.982605,186.270767 
	C557.616516,186.442261 558.293945,186.646194 558.809998,187.030518 
	C566.018127,192.398819 571.434143,198.766434 571.351135,208.478149 
	C571.317444,212.417358 570.788086,216.406845 572.660828,220.253525 
	C577.757446,230.722397 582.734863,241.251816 587.573364,251.842285 
	C588.980103,254.921371 590.527405,255.859543 594.099609,255.188644 
	C604.863831,253.166977 615.548279,250.781097 626.463257,249.395309 
	C637.319336,248.017014 648.091064,245.823120 658.994446,244.595825 
	C661.003174,244.369720 662.528198,243.581635 662.266785,241.117111 
	C661.198669,231.046463 659.989563,220.986801 659.166809,210.895828 
	C658.777100,206.115433 656.562256,201.348953 658.466064,195.854645 
	C661.718323,197.793304 661.929138,200.666351 662.240967,203.336853 
	C663.667114,215.546906 665.005676,227.767288 666.344666,239.987366 
	C667.156799,247.398926 667.095032,247.145508 659.368469,248.241165 
	C644.903625,250.292343 630.412354,252.187790 616.057617,254.997421 
	C612.842773,255.626663 612.034851,256.953491 612.195068,259.992584 
	C612.635620,268.351776 614.893616,276.373901 616.391296,284.536285 
	C616.819153,286.867981 618.268616,287.330048 620.438904,286.973022 
	C627.157227,285.867859 633.895447,284.883453 641.496643,283.740173 
M697.182007,457.615936 
	C694.580994,453.021393 690.048828,451.829437 685.372070,451.302979 
	C679.163025,450.604004 673.157043,451.369110 667.385620,454.193024 
	C664.854553,455.431458 661.964966,457.451141 658.508484,455.167908 
	C660.103333,452.469269 662.716003,452.095001 664.872131,451.063599 
	C675.129028,446.156921 685.581177,445.764862 696.560791,450.813660 
	C696.961548,446.754517 697.531311,443.642395 697.536194,440.529449 
	C697.596008,402.224762 697.526855,363.919891 697.601807,325.615265 
	C697.622620,314.962036 692.960327,306.916931 684.095764,301.576050 
	C669.005676,292.484283 647.346619,303.638824 645.190186,321.131226 
	C644.489502,326.815216 645.157410,332.410980 645.143555,338.041962 
	C645.034912,382.172363 645.050415,426.303040 645.086426,470.433624 
	C645.088196,472.587158 644.621399,474.958252 646.445740,477.435303 
	C660.941895,462.929596 677.327759,456.796570 696.831238,465.246826 
	C698.223511,462.591217 697.624878,460.451080 697.182007,457.615936 
M524.639526,375.499878 
	C524.650146,365.172638 524.739624,354.844635 524.643555,344.518372 
	C524.579590,337.641907 525.057922,331.102020 532.634949,327.316467 
	C521.923523,327.316467 511.974243,327.488373 502.035614,327.237976 
	C497.609863,327.126434 496.293549,328.772552 496.305359,333.060059 
	C496.410248,371.204529 496.380402,409.349518 496.276428,447.494049 
	C496.267365,450.818207 497.336334,452.606018 500.514160,453.792816 
	C508.631531,456.824249 516.495544,460.445740 523.745667,465.274445 
	C525.346252,466.340485 527.322266,467.117401 526.724854,469.819336 
	C524.314392,470.567017 522.788208,469.069977 521.180603,468.052277 
	C514.969666,464.120331 508.462708,460.787659 501.566711,458.239319 
	C500.061188,457.682922 498.421814,456.698395 496.981781,458.371094 
	C494.680756,461.043884 496.795654,468.274628 500.179535,469.728088 
	C505.816925,472.149506 512.101440,473.098602 517.130737,476.876831 
	C521.881592,480.445923 527.175598,481.784271 533.034363,481.708893 
	C540.914673,481.607422 540.938599,481.706787 540.938538,473.569794 
	C540.938110,433.760162 540.927246,393.950500 540.913818,354.140869 
	C540.911194,346.339996 537.261108,342.386322 529.020935,341.411957 
	C527.897827,343.907593 528.330078,346.605621 528.327271,349.213928 
	C528.289917,384.027618 528.316650,418.841339 528.247375,453.654938 
	C528.243225,455.744751 529.228455,458.349945 526.340515,459.913910 
	C525.847351,459.356506 525.069946,458.888519 525.066711,458.415314 
	C524.881836,431.110413 524.761169,403.805145 524.639526,375.499878 
M572.560974,238.938568 
	C571.555298,237.021225 570.287231,235.193100 569.598633,233.167953 
	C568.169250,228.964188 565.358643,227.732544 561.134766,228.055054 
	C556.658447,228.396866 552.141479,228.273453 547.642944,228.247116 
	C527.379639,228.128555 507.106506,228.820053 486.358398,227.822662 
	C492.889038,243.929413 500.562897,259.588837 508.188385,275.267242 
	C509.287292,277.526733 511.476837,277.774445 513.761902,277.769104 
	C537.424683,277.713959 561.087585,277.708649 584.750305,277.639252 
	C586.803650,277.633240 589.163452,278.169128 590.377258,275.995056 
	C583.036621,264.439911 579.156433,251.440079 572.560974,238.938568 
M567.420288,65.304657 
	C564.423279,64.313255 561.273682,63.633244 558.465210,62.257133 
	C554.299927,60.216251 552.484436,62.159218 551.663940,65.787857 
	C551.234070,67.689186 551.135620,69.828003 551.537537,71.721581 
	C552.418030,75.869698 552.449158,79.884842 551.657776,84.072273 
	C550.640076,89.457344 553.672058,93.101288 559.058655,93.648277 
	C567.526245,94.508118 571.215149,99.536850 569.607544,108.053604 
	C569.232544,110.040421 569.056274,112.035065 569.657654,113.986786 
	C570.184265,115.695786 570.514282,117.427368 568.631897,118.354973 
	C566.674866,119.319321 566.225281,117.331375 565.295044,116.260307 
	C562.772888,113.356194 558.537964,114.035645 557.401978,117.475876 
	C554.002197,127.771866 559.999451,139.244965 570.314697,141.349426 
	C575.165955,142.339127 580.190491,142.327240 584.987183,140.082016 
	C587.113403,139.086792 589.765930,137.257523 591.883911,140.561111 
	C590.887878,143.164368 587.739075,142.391525 586.339355,144.211502 
	C587.568665,145.077911 588.645325,144.887512 589.479797,144.446808 
	C597.280579,140.327179 605.051208,136.150162 612.805786,131.943817 
	C614.987976,130.760071 615.202881,128.743301 614.285278,126.757057 
	C612.556396,123.015038 613.049438,120.817780 617.410950,119.313820 
	C621.251709,117.989449 624.550293,111.265373 623.513367,107.625694 
	C622.264771,103.243477 618.145691,105.770447 615.427795,104.838943 
	C615.274109,104.786278 615.097534,104.803032 614.932678,104.779976 
	C610.688538,104.186630 607.592163,104.944862 607.876526,110.289001 
	C607.950623,111.681664 607.814880,113.645493 605.693359,113.532928 
	C603.645813,113.424294 603.575623,111.549706 603.756836,110.099991 
	C604.289185,105.841019 602.548584,102.634377 599.407593,100.051262 
	C595.682251,96.987587 595.222046,92.746353 595.010681,88.392555 
	C594.942810,86.992653 595.128296,85.467735 596.777893,85.278053 
	C598.751465,85.051132 599.223999,86.579025 599.282715,88.230171 
	C599.306396,88.895981 599.290955,89.564079 599.337585,90.228035 
	C599.850708,97.538414 604.263000,101.665184 611.487122,101.601768 
	C626.116028,101.473358 626.053040,101.474144 624.828918,86.912254 
	C624.535400,83.419930 622.974854,81.251968 619.687073,80.457748 
	C617.322632,79.886612 614.907104,79.145332 613.925720,76.918274 
	C609.702576,67.335442 601.921509,65.875221 592.507385,66.084129 
	C584.450745,66.262894 576.233643,68.406288 567.420288,65.304657 
M617.574219,291.832397 
	C615.637512,292.457733 614.057800,293.612885 612.494080,294.908295 
	C602.785217,302.951660 585.967041,302.498474 576.526733,294.001404 
	C575.369629,292.959961 574.213379,291.878021 572.629578,293.156921 
	C570.999023,294.473572 571.167603,295.956909 572.394592,297.506226 
	C583.965454,312.116516 597.194641,324.148102 617.032471,325.461182 
	C622.840454,325.845612 628.709717,325.337524 634.511780,325.767059 
	C639.204468,326.114532 640.832336,324.151550 641.707397,319.791199 
	C644.524841,305.752441 653.930481,296.752350 667.490051,294.947357 
	C671.196411,294.453979 675.024170,294.872437 678.968201,294.872437 
	C678.705261,290.294647 678.725281,286.499390 676.909485,282.743744 
	C673.414917,283.096527 669.939026,283.281799 666.518982,283.820953 
	C650.446106,286.354858 634.388550,288.985962 617.574219,291.832397 
M623.496399,345.623474 
	C627.825684,345.616638 632.155579,345.564850 636.484070,345.620270 
	C638.973572,345.652130 641.099121,344.916534 640.858643,342.134247 
	C640.491638,337.886993 643.015137,333.184906 639.101196,329.462677 
	C638.812134,329.187805 638.132080,329.213409 637.652161,329.266113 
	C622.461670,330.935150 607.597534,326.471344 592.429382,326.976318 
	C578.291748,327.446960 564.125916,327.059662 549.972534,327.086212 
	C548.185791,327.089569 545.586182,326.562073 545.020264,328.490967 
	C543.605347,333.313721 543.562256,338.508911 544.906372,343.246613 
	C545.753784,346.233795 549.591858,344.737030 552.094421,345.032806 
	C555.390625,345.422424 558.730530,345.583710 562.052307,345.592072 
	C582.200623,345.642853 602.349121,345.622162 623.496399,345.623474 
M593.328735,322.553894 
	C585.311218,317.622131 578.637024,311.133575 572.591492,304.039978 
	C569.730408,300.682892 566.561157,299.173126 562.207520,299.307220 
	C548.231750,299.737732 534.214172,300.756470 520.282532,300.089783 
	C508.293030,299.516022 503.011505,307.063080 497.909943,315.348206 
	C495.551849,319.177887 497.330566,321.670746 501.783508,321.759064 
	C507.613434,321.874786 513.445862,321.885529 519.277283,321.900208 
	C527.317871,321.920471 527.312195,321.904205 526.987732,314.326843 
	C526.978027,314.099579 527.380493,313.854645 527.658081,313.542236 
	C530.783020,313.707306 531.438416,316.348175 532.462891,318.535889 
	C533.272217,320.264282 534.035645,321.673859 536.356262,321.746490 
	C542.166809,321.928345 547.966858,322.529633 553.776794,322.628571 
	C566.930176,322.852600 580.087036,322.875183 593.328735,322.553894 
M598.583618,296.645721 
	C603.084106,296.308167 606.785217,294.171753 610.207947,291.439575 
	C611.547058,290.370636 612.671021,289.096802 612.359985,287.218414 
	C610.818237,277.908569 609.225586,268.607147 607.674500,259.298859 
	C607.390137,257.592773 606.656067,256.315155 604.742432,256.846069 
	C600.839111,257.928986 596.557739,257.816467 592.975464,260.200226 
	C593.365784,264.993530 596.172913,268.781616 597.000061,273.187714 
	C598.078857,278.935120 597.096863,280.382355 591.376892,281.098877 
	C587.760986,281.551849 584.159546,282.163818 580.531677,282.462433 
	C578.114685,282.661346 577.175964,283.950073 577.542908,286.046570 
	C577.920715,288.204498 579.670654,287.537292 581.145386,287.324799 
	C584.425354,286.852142 587.707153,286.351196 591.005920,286.066254 
	C592.656433,285.923645 595.034119,285.008087 595.357544,287.823303 
	C595.681274,290.641144 593.434204,290.876770 591.367004,291.056549 
	C588.168579,291.334747 584.817993,290.975159 581.466980,293.215485 
	C583.487305,295.292145 585.796997,295.237671 587.739624,295.328522 
	C591.158325,295.488434 594.703308,294.259827 598.583618,296.645721 
M538.665771,295.672668 
	C544.653809,295.671173 550.691589,295.185303 556.616882,295.794312 
	C563.578735,296.509949 567.937439,293.275879 571.577515,288.074463 
	C572.700684,286.469482 573.251587,284.713104 572.550720,282.908997 
	C571.779907,280.924622 569.801758,281.356293 568.200867,281.354126 
	C556.224976,281.337921 544.248901,281.345520 532.273254,281.414551 
	C530.351135,281.425629 528.239380,281.183533 526.853516,283.041840 
	C531.041016,296.682220 529.171387,295.556183 538.665771,295.672668 
M695.484192,469.068909 
	C678.298096,461.889313 657.553040,467.026398 649.554321,480.442505 
	C649.692200,480.532990 649.823914,480.691132 649.968811,480.704346 
	C664.862793,482.061310 679.765747,480.712128 694.664490,480.821625 
	C696.357117,480.834076 697.574097,479.813202 697.577026,478.047546 
	C697.581848,475.139465 698.547913,472.023438 695.484192,469.068909 
M479.501129,472.903320 
	C474.906494,474.655823 469.610016,475.115112 465.763550,479.746704 
	C466.785797,480.424652 467.168243,480.871887 467.611206,480.943146 
	C475.043396,482.139008 482.485596,482.009033 489.880524,480.724945 
	C492.068817,480.344940 492.337097,478.223083 492.524933,476.385437 
	C492.733093,474.349335 491.458130,473.387665 489.685547,472.886322 
	C486.574982,472.006592 483.440460,472.160706 479.501129,472.903320 
M560.922241,97.458618 
	C557.493652,96.628761 554.815430,97.723122 553.766785,101.098991 
	C552.894287,103.907661 552.150940,107.140129 554.767334,109.498756 
	C557.196655,111.688751 560.133545,111.019218 562.757507,109.735512 
	C567.246643,107.539276 566.608093,101.053894 560.922241,97.458618 
M506.423889,481.036774 
	C508.933258,480.783630 511.603210,481.514679 514.117798,480.058563 
	C511.525909,477.491394 507.685028,475.734161 500.757263,473.873718 
	C499.036194,473.411560 496.933807,472.511688 496.478363,475.302399 
	C496.110748,477.555054 495.834167,480.217072 499.089813,480.735260 
	C501.186951,481.069092 503.355713,480.952911 506.423889,481.036774 
M487.228882,462.723358 
	C487.108582,463.204773 486.992554,463.687286 486.867249,464.167358 
	C486.328735,466.230469 485.959503,468.196686 488.942566,468.645691 
	C491.942688,469.097290 492.776398,467.457855 492.617645,464.874939 
	C492.471680,462.500366 493.238190,459.992584 491.869995,457.742889 
	C489.051971,458.031799 488.041260,459.835510 487.228882,462.723358 
M532.631958,333.487000 
	C530.472473,334.116699 529.292358,335.574615 531.195923,337.233154 
	C532.618835,338.472870 535.077026,339.919891 536.863159,337.884918 
	C538.378296,336.158783 536.369690,335.050629 535.110413,334.117706 
	C534.619507,333.753998 533.918396,333.674164 532.631958,333.487000 
M540.359558,331.601074 
	C540.531250,330.050446 541.401672,328.251770 539.125793,327.488892 
	C538.289185,327.208435 537.483398,327.602386 536.992188,328.334656 
	C536.005554,329.805511 536.669067,331.230042 537.428101,332.473267 
	C538.346741,333.977997 539.287720,333.264679 540.359558,331.601074 
M704.408569,476.235748 
	C703.796936,475.519135 703.178467,474.199799 702.126465,475.234131 
	C700.810791,476.527740 701.077942,478.301910 701.803833,479.862396 
	C702.199829,480.713501 703.179138,480.871735 703.977661,480.551331 
	C706.048462,479.720337 705.265320,478.222961 704.408569,476.235748 
z"/>
<path fill="#000000" opacity="1.000000" stroke="none" 
	d="
M326.929291,198.078766 
	C335.112061,206.176422 342.997406,214.070221 350.999695,221.843613 
	C353.807434,224.571014 353.705627,226.757675 350.748566,229.286896 
	C347.216705,232.307755 344.723419,237.417877 340.404907,238.386780 
	C336.085419,239.355896 332.929474,234.282623 329.034210,232.228210 
	C309.147095,221.739441 288.958740,221.203186 268.446533,230.038132 
	C264.788422,231.613739 261.046265,233.339478 257.935059,235.757736 
	C253.374435,239.302612 250.416397,237.845779 246.942886,234.162262 
	C238.273911,224.969131 238.185013,225.111374 247.364639,216.004486 
	C261.797241,201.686234 276.169312,187.306961 290.599274,172.986023 
	C296.306915,167.321487 296.777588,167.504761 302.397919,173.331207 
	C310.378937,181.604996 318.574188,189.672119 326.929291,198.078766 
z"/>
<path fill="#000000" opacity="1.000000" stroke="none" 
	d="
M228.256042,296.791016 
	C229.070419,309.496277 232.693695,320.772400 240.225281,330.527588 
	C243.112228,334.266846 242.992340,336.963074 239.623550,340.338898 
	C228.706543,351.278625 231.156708,351.461914 220.100754,340.507965 
	C205.099854,325.645477 190.341980,310.537354 175.308167,295.708679 
	C172.200424,292.643341 172.743866,290.591644 175.489716,287.867523 
	C192.377411,271.113342 209.207825,254.301147 225.993042,237.444275 
	C228.748962,234.676590 230.970932,233.977905 233.679749,237.552368 
	C235.574051,240.052017 237.942871,242.223648 240.270828,244.354919 
	C243.012833,246.865234 242.978088,249.234116 240.844620,252.173981 
	C231.291870,265.337433 227.291824,280.134125 228.256042,296.791016 
z"/>
<path fill="#000000" opacity="1.000000" stroke="none" 
	d="
M364.339600,348.230103 
	C357.573975,346.557159 354.142792,341.052307 350.039490,336.465759 
	C348.565430,334.818115 350.540100,333.103943 351.590759,331.654480 
	C360.802948,318.945923 365.233124,304.751404 364.635162,289.064972 
	C364.154510,276.455475 360.367737,264.895142 353.046692,254.565903 
	C348.537781,248.204330 348.583588,247.448349 354.321838,242.168900 
	C363.194427,234.005768 363.197327,234.002853 371.655518,242.510925 
	C386.805756,257.750519 401.920563,273.025543 417.133392,288.202393 
	C419.466095,290.529572 420.660706,292.292145 417.750580,295.168640 
	C399.980743,312.732971 382.326752,330.414551 364.339600,348.230103 
z"/>
<path fill="#000000" opacity="1.000000" stroke="none" 
	d="
M326.303284,353.293884 
	C330.516052,351.499725 333.739990,348.819977 337.156525,346.466431 
	C339.088043,345.135895 340.624054,344.895081 342.378418,346.768127 
	C344.877136,349.435913 347.433472,352.077911 350.197296,354.461823 
	C353.367767,357.196533 353.093018,359.596924 350.293243,362.362946 
	C343.666107,368.910339 337.134979,375.554871 330.561737,382.156830 
	C320.469360,392.293427 310.279907,402.336029 300.337036,412.617218 
	C297.298981,415.758698 295.483917,415.696350 292.354156,412.515228 
	C275.794647,395.684326 258.994202,379.089722 242.203323,362.488007 
	C239.433899,359.749786 238.944504,357.648407 242.033646,354.626892 
	C251.742401,345.130524 251.501007,345.297241 263.320160,351.778259 
	C283.827118,363.023224 304.809296,363.417084 326.303284,353.293884 
z"/>
<path fill="#000000" opacity="1.000000" stroke="none" 
	d="
M329.035889,297.651794 
	C326.102325,314.633423 317.761475,322.973267 302.102142,324.981598 
	C286.767212,326.948334 272.078247,319.518646 266.470306,305.787445 
	C261.275879,293.068726 262.253754,280.320312 271.732300,269.794586 
	C281.085175,259.408417 293.086151,256.260162 306.729340,260.236847 
	C312.771332,261.997925 318.241791,264.641266 322.188690,269.739594 
	C325.156311,273.572937 324.529663,274.884460 320.775452,277.616974 
	C316.195496,280.950500 312.707092,280.359314 308.446442,276.905884 
	C301.840485,271.551483 292.197693,271.586731 285.670044,276.237976 
	C279.274963,280.794678 276.012115,289.029449 277.882874,295.891052 
	C280.384949,305.068024 286.764435,310.258087 296.139191,310.884003 
	C303.177490,311.353912 309.338745,309.984863 313.462585,303.278046 
	C310.725800,300.158112 307.207733,301.393311 304.116608,301.349182 
	C297.296387,301.251740 294.305817,296.947968 296.908875,290.675110 
	C297.634064,288.927490 299.034485,288.743805 300.570526,288.750153 
	C308.563019,288.783173 316.555664,288.811432 324.547729,288.895538 
	C330.954834,288.962982 328.992676,293.660980 329.035889,297.651794 
z"/>
<path fill="#000000" opacity="1.000000" stroke="none" 
	d="
M97.377548,211.510895 
	C95.820702,198.218872 96.259460,197.720200 108.822655,197.715988 
	C152.969193,197.701187 197.115723,197.680649 241.262268,197.670853 
	C242.232010,197.670639 243.201782,197.772705 244.020889,197.818604 
	C245.199753,199.640213 243.900192,200.548752 243.071930,201.461517 
	C240.498459,204.297546 237.708344,206.944839 235.239822,209.866074 
	C232.751038,212.811234 229.591263,213.917221 225.951935,213.822708 
	C185.481644,212.771713 145.005157,213.655090 104.533035,213.354233 
	C102.180458,213.336731 99.472618,214.350174 97.377548,211.510895 
z"/>
<path fill="#000000" opacity="1.000000" stroke="none" 
	d="
M420.000031,197.762421 
	C442.973633,197.767197 465.447174,197.747406 487.920593,197.792542 
	C495.201019,197.807175 495.264313,197.956543 495.295776,206.085770 
	C495.321747,212.784790 495.008881,213.228607 487.789825,213.247833 
	C450.833191,213.346268 413.876373,213.364319 376.919617,213.410477 
	C375.754303,213.411942 374.538208,213.193542 373.431488,213.448990 
	C361.082489,216.299210 355.096893,207.585678 348.591370,199.832748 
	C348.326294,199.516830 348.400330,198.916397 348.193390,197.763077 
	C372.103455,197.763077 395.801697,197.763077 420.000031,197.762421 
z"/>
<path fill="#000000" opacity="1.000000" stroke="none" 
	d="
M242.187683,385.412750 
	C195.335175,385.415283 148.851547,385.350311 102.368187,385.435394 
	C98.367584,385.442719 96.711937,383.838684 97.117737,380.166809 
	C98.283127,369.621918 95.596306,370.720642 106.664337,370.689117 
	C146.658081,370.575134 186.651932,370.496429 226.645691,370.381683 
	C229.436234,370.373688 231.765228,371.041138 233.797226,373.192841 
	C236.767456,376.338074 240.057877,379.179138 243.173111,382.189911 
	C244.526871,383.498260 245.734360,384.896393 242.187683,385.412750 
z"/>
<path fill="#000000" opacity="1.000000" stroke="none" 
	d="
M152.953186,146.290527 
	C140.510757,140.906158 133.955414,131.443207 133.875122,118.527191 
	C133.799484,106.361725 139.398926,96.549782 150.694458,91.147087 
	C159.958160,86.716217 177.245468,86.816483 186.353638,97.296555 
	C188.145370,99.358154 190.259705,101.366699 187.717072,104.143280 
	C184.791977,107.337494 179.408234,108.637169 177.236404,106.547852 
	C172.400345,101.895508 166.708649,100.288765 160.242859,101.361549 
	C153.862137,102.420204 148.153442,108.615166 147.349884,115.041595 
	C146.263779,123.727898 149.560089,130.358032 156.636292,133.720123 
	C163.299469,136.885971 172.380051,135.725723 176.725800,131.164169 
	C177.546555,130.302643 178.144852,129.369705 178.084229,127.384796 
	C174.929733,127.384796 171.841415,127.326057 168.756149,127.398514 
	C164.086823,127.508163 163.424286,124.448418 163.311386,120.800812 
	C163.192612,116.962250 164.612610,114.915009 168.813263,114.992432 
	C175.306534,115.112106 181.806702,114.962006 188.301956,114.829300 
	C191.931015,114.755150 193.174728,116.444740 193.313553,119.999069 
	C194.179489,142.167725 172.172256,154.405350 152.953186,146.290527 
z"/>
<path fill="#000000" opacity="1.000000" stroke="none" 
	d="
M129.000000,242.234680 
	C119.848557,242.220184 111.192978,242.040161 102.547371,242.257248 
	C98.112846,242.368591 96.782204,240.536377 96.807953,236.329971 
	C96.867371,226.622681 96.719070,226.670029 106.484138,226.680038 
	C140.590729,226.715027 174.697342,226.707123 208.803940,226.741028 
	C211.057907,226.743271 213.388962,226.377243 215.602509,227.339874 
	C212.305557,235.686646 203.054352,242.254288 194.884552,242.251602 
	C173.089706,242.244431 151.294846,242.239441 129.000000,242.234680 
z"/>
<path fill="#000000" opacity="1.000000" stroke="none" 
	d="
M145.999695,357.355896 
	C131.358093,357.330780 117.216156,357.356384 103.075111,357.256104 
	C97.521255,357.216736 96.991142,356.415070 97.032608,349.618835 
	C97.076500,342.424072 97.585083,341.725861 103.351151,341.720245 
	C134.796143,341.689636 166.241302,341.730255 197.686020,341.627899 
	C201.128143,341.616699 203.758499,342.651215 206.069382,345.133606 
	C209.294479,348.598145 212.684006,351.909637 216.003174,355.286621 
	C215.805283,355.931671 215.607376,356.576721 215.409485,357.221771 
	C192.439575,357.266602 169.469650,357.311401 145.999695,357.355896 
z"/>
<path fill="#000000" opacity="1.000000" stroke="none" 
	d="
M286.745087,119.000053 
	C286.741943,111.001404 286.718201,103.502670 286.742615,96.004097 
	C286.763702,89.533554 287.220032,89.039078 292.831055,89.028366 
	C299.659912,89.015343 300.271698,89.593864 300.313507,96.285614 
	C300.341125,100.711098 300.318726,105.136879 301.515320,109.936485 
	C305.279297,105.159988 309.120880,100.442215 312.788818,95.593063 
	C318.150024,88.505295 321.572113,87.507965 330.723328,90.704102 
	C331.425781,92.886009 329.662445,94.023575 328.605316,95.402519 
	C324.146973,101.218170 319.718140,107.060379 315.102020,112.749657 
	C312.339874,116.153893 312.413422,119.042412 315.183838,122.499352 
	C320.389679,128.995270 325.262665,135.758896 330.233948,142.441010 
	C331.189972,143.726074 332.605042,144.879181 332.123932,146.802780 
	C321.770325,149.863632 319.550903,149.034775 313.629089,140.961563 
	C309.829498,135.781586 306.464722,130.191605 300.344391,125.149818 
	C300.344391,131.727890 300.200928,137.288513 300.382629,142.838501 
	C300.585236,149.025879 296.166840,147.946091 292.462097,148.247925 
	C288.582245,148.564026 286.558746,147.347763 286.682953,142.994003 
	C286.906128,135.168457 286.745575,127.331963 286.745087,119.000053 
z"/>
<path fill="#000000" opacity="1.000000" stroke="none" 
	d="
M352.471680,110.111870 
	C350.186676,97.182426 357.119629,89.023865 369.776520,88.619560 
	C377.951630,88.358421 385.037079,90.087112 389.920959,97.125465 
	C391.270599,99.070465 393.482117,102.063148 390.265594,103.501617 
	C387.116608,104.909882 384.394653,110.796906 379.704254,105.652046 
	C377.313385,103.029549 374.571564,100.880287 370.626831,101.226532 
	C368.238403,101.436172 366.364532,102.413651 365.650024,104.721237 
	C364.836517,107.348564 366.598022,108.867355 368.690552,109.731224 
	C373.145935,111.570541 377.752991,113.046234 382.188995,114.927681 
	C389.113708,117.864693 393.834045,122.247269 393.407990,130.745697 
	C392.994080,139.002014 389.850159,144.032471 382.014038,146.989227 
	C370.213776,151.441772 358.174011,147.929764 350.846985,138.037445 
	C348.751556,135.208420 348.774750,133.549255 351.965942,131.210800 
	C356.593414,127.819855 359.917419,126.999252 363.938019,132.150482 
	C366.308502,135.187622 370.459900,136.107895 374.481628,135.552139 
	C377.102539,135.189972 379.286133,133.950287 379.782867,131.048508 
	C380.249207,128.324280 378.299713,127.118675 376.230194,126.299797 
	C371.591309,124.464226 366.898254,122.764397 362.216003,121.039925 
	C357.183472,119.186432 353.673645,115.961685 352.471680,110.111870 
z"/>
<path fill="#000000" opacity="1.000000" stroke="none" 
	d="
M416.887634,110.387070 
	C416.742554,108.132072 416.626129,106.302589 416.651520,104.475075 
	C416.762024,96.512856 420.013092,92.136047 427.548187,89.721359 
	C437.126740,86.651825 447.475250,89.128777 453.128082,96.059219 
	C454.841095,98.159348 457.202789,100.568245 454.551727,103.486710 
	C451.125397,107.258675 446.474701,107.903160 443.623108,105.152534 
	C440.876373,102.503006 437.930328,100.503815 433.865295,101.292816 
	C431.520294,101.747963 429.898102,103.117493 429.483551,105.490593 
	C429.095978,107.709251 430.711487,108.912453 432.425171,109.615982 
	C436.262512,111.191360 440.187927,112.553017 444.082031,113.989334 
	C454.747742,117.923355 457.639496,122.088295 457.319153,132.833603 
	C457.154877,138.343872 454.359344,142.405731 449.950470,145.122055 
	C438.236633,152.339081 422.832153,148.885986 414.952881,137.689621 
	C413.001678,134.916962 413.284210,133.403244 416.124237,131.227783 
	C420.677643,127.739914 424.046417,126.886055 428.059967,132.109131 
	C430.413635,135.172073 434.532959,136.095490 438.561981,135.568665 
	C441.437286,135.192673 443.676483,133.669998 444.195007,130.707748 
	C444.679321,127.940826 442.237122,127.020958 440.305145,126.226913 
	C435.544189,124.270142 430.676910,122.573532 425.869812,120.727005 
	C421.229370,118.944511 417.980621,115.878365 416.887634,110.387070 
z"/>
<path fill="#000000" opacity="1.000000" stroke="none" 
	d="
M223.431870,127.433289 
	C219.705948,116.152679 216.166595,105.226547 212.487534,94.347664 
	C211.147720,90.385918 211.900665,89.071617 216.457596,89.248314 
	C226.462494,89.636246 224.885193,89.947861 227.433060,97.506386 
	C230.142090,105.543137 232.693710,113.632858 235.382172,121.676689 
	C236.048294,123.669716 236.977585,125.574799 238.261398,128.664703 
	C242.067719,116.570457 245.832001,105.778412 248.766846,94.765320 
	C250.126465,89.663315 252.574173,88.236961 257.266418,89.314873 
	C259.340851,89.791412 261.632568,89.147202 263.746399,90.634354 
	C264.022461,94.326897 262.066162,97.584045 260.973816,100.956795 
	C256.464783,114.878601 251.436630,128.634186 247.043442,142.590668 
	C245.249893,148.288467 241.050964,147.787979 236.770752,148.193283 
	C232.558594,148.592117 229.795242,147.401291 228.559601,142.979797 
	C227.127884,137.856674 225.248306,132.858734 223.431870,127.433289 
z"/>
<path fill="#000000" opacity="1.000000" stroke="none" 
	d="
M185.318451,255.702789 
	C188.060272,257.513123 185.835098,258.731506 184.964355,259.712830 
	C182.095657,262.945740 179.006424,265.983734 175.982742,269.077942 
	C174.361908,270.736633 172.313660,271.225464 170.058990,271.224823 
	C147.249359,271.218536 124.439644,271.203644 101.630173,271.267944 
	C98.216637,271.277618 96.999603,269.809967 96.863289,266.460449 
	C96.426880,255.737045 96.390121,255.681519 107.039047,255.679276 
	C133.012863,255.673828 158.986679,255.664795 185.318451,255.702789 
z"/>
<path fill="#000000" opacity="1.000000" stroke="none" 
	d="
M494.993591,258.993652 
	C494.224701,261.254608 494.126282,263.539520 494.864746,265.848206 
	C496.085846,269.665863 494.305115,271.082184 490.690857,271.096680 
	C485.859467,271.116058 481.028351,271.222198 476.197021,271.231720 
	C458.540375,271.266510 440.883301,271.224823 423.227264,271.340485 
	C419.753784,271.363251 417.111847,270.241608 415.069397,267.473480 
	C412.356628,263.796936 408.409302,261.104584 406.111908,257.067352 
	C407.934082,255.108032 409.879852,255.735535 411.591919,255.732300 
	C436.750580,255.684906 461.909393,255.698807 487.068146,255.707123 
	C489.882019,255.708054 492.860596,255.329346 494.751831,258.779480 
	C495.023560,259.047302 495.004364,259.010956 494.993591,258.993652 
z"/>
<path fill="#000000" opacity="1.000000" stroke="none" 
	d="
M157.992386,313.053467 
	C160.651978,313.041992 162.851852,313.290710 164.968384,312.976959 
	C176.575211,311.256500 180.600143,320.690308 187.013947,326.689911 
	C185.540710,328.771423 184.117691,328.387054 182.839554,328.388153 
	C156.238510,328.410858 129.636169,328.282898 103.037552,328.542511 
	C97.981407,328.591858 96.445023,326.773621 96.938431,322.188721 
	C97.062180,321.038849 96.951859,319.863678 96.947723,318.700134 
	C96.935196,315.174438 98.100311,313.456573 102.214912,313.470520 
	C120.640663,313.532898 139.067657,313.226990 157.992386,313.053467 
z"/>
<path fill="#000000" opacity="1.000000" stroke="none" 
	d="
M128.000626,300.221313 
	C119.017471,300.228180 110.532089,300.115875 102.052223,300.282959 
	C98.362976,300.355652 96.845100,298.786102 96.962212,295.271515 
	C96.967743,295.105438 96.964722,294.938660 96.957405,294.772583 
	C96.527496,285.007782 96.792000,284.666656 106.476044,284.636261 
	C121.612396,284.588745 136.749176,284.597839 151.885361,284.671692 
	C153.925797,284.681641 156.270752,284.065826 157.812286,286.136017 
	C158.156891,289.355194 152.774750,289.189362 153.981064,292.413788 
	C154.809448,294.628021 156.706848,296.442322 158.976318,299.628601 
	C148.104340,300.668304 138.273224,299.889648 128.000626,300.221313 
z"/>
<path fill="#000000" opacity="1.000000" stroke="none" 
	d="
M493.561096,285.270447 
	C496.042755,289.269043 494.990753,293.326538 494.976074,297.257812 
	C494.968414,299.306915 493.312805,300.059143 491.500458,300.064270 
	C473.039062,300.116486 454.577515,300.132568 436.116058,300.113464 
	C435.556915,300.112885 434.998260,299.618805 434.306366,299.291992 
	C435.026306,296.174042 438.436096,295.218994 439.053162,292.286133 
	C439.833374,288.577850 434.036469,289.457062 435.024139,284.836548 
	C454.258698,284.771790 473.717468,284.019928 493.561096,285.270447 
z"/>
<path fill="#000000" opacity="1.000000" stroke="none" 
	d="
M172.198135,434.146881 
	C181.053513,434.700012 179.058853,436.124603 182.066010,429.375580 
	C183.148972,428.856720 184.332657,429.261200 184.718704,430.066956 
	C186.918289,434.657990 190.791870,435.185425 195.184937,434.748566 
	C198.418274,434.427032 199.916794,436.036499 200.700699,439.143311 
	C201.604584,442.725616 201.344254,446.729004 204.172424,450.295227 
	C206.559143,446.144562 209.282196,442.649261 209.654877,438.029480 
	C209.787445,436.386200 209.587051,434.485870 212.142441,434.603821 
	C214.537384,434.714386 215.004089,436.313263 215.245056,438.333130 
	C215.765656,442.697083 215.896194,447.210815 218.947098,451.341888 
	C223.587280,446.359589 222.530289,439.194244 226.359756,433.959869 
	C229.222519,436.236359 228.323380,438.635498 227.821838,440.731110 
	C226.622604,445.741974 225.200668,450.701233 223.789062,455.658691 
	C223.302750,457.366608 223.084946,459.531586 220.717041,459.691742 
	C218.134964,459.866425 216.867462,457.984558 216.024017,455.917419 
	C214.727646,452.740326 213.578812,449.504608 211.302307,446.369263 
	C208.335876,449.185669 209.342804,452.670776 208.350113,455.495148 
	C207.663177,457.449677 207.286209,459.597504 204.849426,459.751923 
	C202.384995,459.908142 201.526031,457.801544 200.922943,455.894623 
	C199.471588,451.305542 197.892944,446.728271 196.888123,442.034393 
	C195.882675,437.337616 192.527695,438.314941 189.482498,438.350128 
	C186.175415,438.388306 185.388260,440.521240 185.398483,443.390747 
	C185.415802,448.247253 185.032761,453.036285 190.383987,455.981689 
	C192.588699,457.195221 191.807510,459.308716 189.442184,459.891266 
	C186.181229,460.694305 183.265015,460.002899 182.638397,456.108032 
	C181.746765,450.565918 181.142929,444.977509 180.440079,439.592224 
	C179.223984,438.453583 178.024780,439.253693 176.922836,439.101715 
	C172.048920,438.429474 170.916199,440.952637 171.256866,445.252136 
	C171.532181,448.726898 171.331589,452.241638 171.292145,455.738098 
	C171.275101,457.249695 171.258514,459.016815 169.238129,459.144348 
	C166.799377,459.298340 166.829666,457.302429 166.796417,455.644257 
	C166.723022,451.982300 166.786682,448.317627 166.712189,444.655701 
	C166.681915,443.167389 166.951553,441.323212 166.204742,440.257812 
	C162.287994,434.670258 166.804443,430.571808 168.841293,426.424042 
	C170.972000,422.085175 175.856384,422.552185 179.375397,426.963470 
	C176.841980,429.218506 169.697479,426.802338 172.198135,434.146881 
z"/>
<path fill="#000000" opacity="1.000000" stroke="none" 
	d="
M442.430267,439.982544 
	C444.476807,434.645203 448.490540,433.879730 452.826996,435.035034 
	C456.769562,436.085358 457.886658,435.017822 457.851135,431.101257 
	C457.828644,428.618378 456.363983,424.120422 460.306824,424.297211 
	C463.963043,424.461182 462.307068,428.850525 462.365387,431.416809 
	C462.546326,439.380737 462.354919,447.353516 462.562225,455.316223 
	C462.634186,458.081055 461.954468,459.483490 459.025726,459.202454 
	C458.530212,459.154938 458.007721,459.075562 457.532379,459.175659 
	C440.637604,462.732391 440.600983,453.606689 442.430267,439.982544 
M457.650635,451.786591 
	C457.660919,449.458221 457.566040,447.123566 457.705170,444.802948 
	C457.935944,440.954010 455.974884,439.413696 452.376648,439.170197 
	C447.302155,438.826782 445.994537,440.764923 446.233856,448.490997 
	C446.316986,451.174164 446.093567,454.186340 449.267670,455.210083 
	C452.439423,456.233063 455.501221,455.762939 457.650635,451.786591 
z"/>
<path fill="#000000" opacity="1.000000" stroke="none" 
	d="
M318.330322,452.306824 
	C317.623871,455.176300 320.090424,459.645782 316.086853,459.695129 
	C312.082733,459.744446 313.868011,455.276184 313.782440,452.813141 
	C313.534576,445.677002 313.903229,438.518860 313.633820,431.384277 
	C313.465515,426.926392 315.302521,425.280914 319.505737,425.717224 
	C321.315308,425.905060 323.153900,425.949554 324.929199,426.307739 
	C331.651764,427.664001 333.473145,430.019287 333.340393,436.931122 
	C333.224670,442.953125 330.327972,446.308350 324.022125,447.076965 
	C320.867981,447.461456 317.811096,447.371490 318.330322,452.306824 
M328.622894,437.954712 
	C328.635468,432.510590 326.377563,429.946625 321.515900,430.277344 
	C316.066345,430.648041 319.113037,434.985596 318.328491,437.536896 
	C318.282288,437.687164 318.324951,437.865753 318.331177,438.030945 
	C318.537262,443.478790 320.202057,444.480133 325.126495,442.171936 
	C326.702118,441.433441 327.872864,440.363434 328.622894,437.954712 
z"/>
<path fill="#000000" opacity="1.000000" stroke="none" 
	d="
M288.531433,459.910614 
	C281.102203,460.352112 277.213013,458.446320 275.362335,453.729401 
	C273.015350,447.747711 274.485535,438.923279 278.836182,435.725464 
	C282.683075,432.897888 287.050751,433.210754 290.993896,435.701385 
	C294.579865,437.966370 295.468170,441.743927 295.272919,445.715546 
	C295.167145,447.867676 293.332397,448.091583 291.593842,448.210114 
	C287.659821,448.478180 283.728149,448.780609 279.812439,449.067841 
	C279.978088,454.228882 281.745056,455.893402 286.829865,455.720245 
	C288.139801,455.675629 289.446381,455.359741 290.741730,455.103760 
	C292.303101,454.795197 293.902832,454.597717 294.250244,456.651642 
	C294.526337,458.284180 293.287201,458.975342 291.875031,459.285706 
	C290.903351,459.499207 289.919403,459.656708 288.531433,459.910614 
M286.054810,438.352386 
	C283.941528,438.275879 281.542816,437.754639 280.656799,440.462158 
	C280.118958,442.105713 279.477753,444.050232 281.550690,445.286743 
	C283.288544,446.323334 289.644257,445.005005 290.210175,443.365326 
	C291.247742,440.359314 289.103149,439.304138 286.054810,438.352386 
z"/>
<path fill="#000000" opacity="1.000000" stroke="none" 
	d="
M240.244659,460.211609 
	C236.661484,459.779602 234.019302,458.565704 232.998825,455.277039 
	C231.484451,450.396759 234.416245,446.553680 239.590378,445.511932 
	C242.138992,444.998779 247.310455,446.747711 246.315369,441.561920 
	C245.580383,437.731659 241.548492,438.511932 238.384781,439.195007 
	C236.890915,439.517548 234.796265,440.722046 234.267532,438.237122 
	C233.730316,435.712280 235.592834,434.982971 237.865524,434.626556 
	C247.689240,433.085876 251.139679,435.881866 251.263550,445.705383 
	C251.276093,446.700928 251.309906,447.697205 251.287064,448.692047 
	C251.009277,460.787781 253.021729,458.281799 240.244659,460.211609 
M245.728882,448.893951 
	C244.075974,447.942657 242.508835,448.946228 240.909637,449.120331 
	C238.677902,449.363220 236.922012,450.241943 237.519577,452.887085 
	C238.032883,455.159180 239.767593,456.035889 242.023178,455.849609 
	C246.157028,455.508209 247.522675,453.323578 245.728882,448.893951 
z"/>
<path fill="#000000" opacity="1.000000" stroke="none" 
	d="
M144.179596,459.244324 
	C135.739990,454.251923 135.268631,440.790009 142.986008,435.513641 
	C148.889282,431.477631 158.187210,435.413818 159.278442,442.494873 
	C159.676758,445.079437 160.167160,447.623047 159.554001,450.363251 
	C157.745941,458.443695 152.695175,461.608276 144.179596,459.244324 
M142.590439,443.413391 
	C141.963242,445.538391 142.081436,447.696472 142.295090,449.860931 
	C142.564133,452.586334 143.804794,454.665405 146.499390,455.481018 
	C149.392899,456.356934 151.722687,455.224304 153.547073,452.952057 
	C155.692673,450.279633 156.074890,447.216522 155.337570,443.978180 
	C154.594391,440.714111 152.610565,438.769562 149.192764,438.327209 
	C145.745224,437.881012 143.867920,439.581787 142.590439,443.413391 
z"/>
<path fill="#000000" opacity="1.000000" stroke="none" 
	d="
M116.376434,453.773438 
	C118.280029,454.451813 119.788101,455.239655 121.389801,455.561462 
	C124.173080,456.120728 126.408463,454.966125 127.429794,452.344574 
	C128.435410,449.763336 127.803055,447.577179 125.166672,445.998138 
	C122.186462,444.213196 118.902481,442.868713 116.392181,440.347382 
	C112.684540,436.623566 112.890656,430.769653 116.838814,427.629608 
	C120.574211,424.658752 128.708130,425.071808 130.984406,428.414124 
	C131.301712,428.880035 131.135956,429.674927 131.194519,430.325348 
	C128.637421,432.212799 126.302567,430.121857 123.921402,430.178650 
	C121.583412,430.234406 119.532433,430.526184 118.641090,432.966248 
	C117.813850,435.230896 119.126923,436.891724 120.774521,438.094421 
	C122.363625,439.254425 124.129280,440.304077 125.975044,440.955383 
	C130.780350,442.650940 132.536102,445.964111 132.420349,450.923126 
	C132.330841,454.757660 130.816956,457.585480 127.349258,458.650085 
	C123.007729,459.982941 118.471169,460.168488 114.480240,457.244965 
	C113.551422,456.564514 112.693710,455.528809 113.351570,454.252716 
	C113.920464,453.149170 115.049561,453.514587 116.376434,453.773438 
z"/>
<path fill="#000000" opacity="1.000000" stroke="none" 
	d="
M344.103119,444.121521 
	C344.805206,447.031219 344.881439,449.755554 347.214752,452.234497 
	C350.209320,448.546021 350.943420,444.107422 352.610260,440.128876 
	C353.310211,438.458191 353.799683,436.685181 354.638702,435.092438 
	C355.105591,434.206177 356.185364,433.825806 357.253876,434.319366 
	C358.382111,434.840515 358.470673,435.808380 358.119232,436.839661 
	C355.817413,443.593903 353.664154,450.405701 351.118469,457.067261 
	C349.620422,460.987396 347.163055,461.083679 344.595764,457.634491 
	C343.090363,455.612030 342.270111,453.250366 341.573517,450.844330 
	C340.281128,446.380554 338.954254,441.926727 337.651886,437.465790 
	C337.274475,436.173126 336.760712,434.682129 338.580261,434.165985 
	C340.113983,433.730896 341.133453,434.828522 341.604950,436.143555 
	C342.500153,438.640320 343.219971,441.199982 344.103119,444.121521 
z"/>
<path fill="#000000" opacity="1.000000" stroke="none" 
	d="
M436.390015,434.903931 
	C437.562653,436.575134 437.190643,438.132477 435.802185,438.451416 
	C429.742584,439.843384 431.657928,444.593384 431.318085,448.420624 
	C430.890289,453.238281 433.119934,455.967865 437.876648,456.188629 
	C438.056427,459.576019 436.068451,460.025238 434.017853,460.081696 
	C430.901886,460.167542 427.832306,458.729584 427.405243,455.839142 
	C426.333527,448.585571 425.588501,441.201447 425.700134,433.884766 
	C425.772003,429.173981 428.619080,428.487549 432.221222,431.576233 
	C433.472473,432.649139 434.799133,433.634125 436.390015,434.903931 
z"/>
<path fill="#000000" opacity="1.000000" stroke="none" 
	d="
M405.679321,451.858887 
	C405.696625,444.241516 405.690765,437.106873 405.749847,429.972778 
	C405.764496,428.210022 405.428314,425.889801 408.154449,425.962128 
	C410.817749,426.032867 410.438263,428.251038 410.425079,430.073853 
	C410.379639,436.378113 410.475098,442.686493 410.272278,448.985443 
	C410.139404,453.112457 411.663605,455.045135 415.966064,455.239380 
	C418.488342,455.353333 421.279236,455.025940 423.597717,456.611603 
	C423.679871,459.178070 421.883606,459.203888 420.227509,459.315063 
	C418.077637,459.459442 415.914124,459.434631 413.770660,459.634399 
	C406.444733,460.317047 405.786621,459.748230 405.679321,451.858887 
z"/>
<path fill="#000000" opacity="1.000000" stroke="none" 
	d="
M368.742126,459.592133 
	C363.778503,457.595947 364.500671,453.198700 363.977448,449.643555 
	C363.354584,445.411163 363.780640,441.044769 362.762939,436.816559 
	C362.611664,436.187958 362.600586,435.470551 362.733948,434.838379 
	C363.203125,432.614868 363.252136,429.620911 365.987976,429.304962 
	C369.222717,428.931458 367.864075,432.543884 368.964508,434.010529 
	C371.010498,435.658081 374.116943,433.664520 375.799683,436.154999 
	C375.750519,438.572693 373.796844,438.859283 372.309937,438.949005 
	C368.548706,439.176056 367.966919,441.503571 368.390930,444.421539 
	C368.955353,448.305878 366.125061,453.429138 372.224884,455.412323 
	C373.643829,455.873657 376.127319,455.202209 375.898285,457.690338 
	C375.680054,460.061066 373.319183,459.844330 371.573914,460.038696 
	C370.777924,460.127319 369.941467,459.852142 368.742126,459.592133 
z"/>
<path fill="#000000" opacity="1.000000" stroke="none" 
	d="
M263.208008,452.864746 
	C263.199646,454.499634 263.206329,455.660858 263.165985,456.820404 
	C263.105927,458.548004 262.355042,459.801056 260.475067,459.621246 
	C258.680481,459.449554 258.728058,457.870819 258.717010,456.559082 
	C258.665344,450.423462 258.673431,444.287292 258.630981,438.151550 
	C258.619598,436.506348 258.873016,435.114777 260.927094,435.060181 
	C264.070923,434.976685 267.215820,434.869904 270.359741,434.884552 
	C271.432983,434.889557 272.225037,435.598572 272.398712,436.710236 
	C272.576324,437.846985 271.934814,438.991638 270.939362,438.939331 
	C259.411316,438.333496 264.128174,446.973480 263.208008,452.864746 
z"/>
<path fill="#000000" opacity="1.000000" stroke="none" 
	d="
M382.227631,454.031616 
	C385.039398,453.632904 387.113892,454.232971 386.900085,457.091003 
	C386.726166,459.415100 384.661499,459.942505 382.830963,459.220154 
	C380.228241,458.193115 380.132050,456.262482 382.227631,454.031616 
z"/>
<path fill="#000000" opacity="1.000000" stroke="none" 
	d="
M470.219116,457.641754 
	C469.639313,454.505981 471.065704,453.695251 473.503876,454.223450 
	C475.104736,454.570251 476.512909,455.718201 475.678284,457.328339 
	C474.467072,459.664886 472.417755,459.751312 470.219116,457.641754 
z"/>
<path fill="#000000" opacity="1.000000" stroke="none" 
	d="
M536.173218,242.834274 
	C538.419739,250.359756 536.694824,254.052963 531.271606,254.302246 
	C527.371826,254.481522 525.223694,252.518570 525.356873,248.683701 
	C525.472900,245.342453 525.053040,241.252548 530.528564,241.625717 
	C532.337524,241.749008 534.187195,241.497452 536.173218,242.834274 
M530.109497,249.594437 
	C531.958191,249.844238 533.540710,249.579483 533.461792,247.240112 
	C533.415405,245.867615 532.377136,245.043442 531.092041,245.435638 
	C529.164673,246.023849 527.799988,247.143463 530.109497,249.594437 
z"/>
<path fill="#000000" opacity="1.000000" stroke="none" 
	d="
M574.383179,95.472427 
	C576.743469,93.177696 579.436462,92.826881 582.077698,92.990997 
	C586.271484,93.251579 590.662720,93.723030 592.063721,98.739250 
	C593.628418,104.341614 591.842773,110.227516 588.281982,112.237503 
	C584.677246,114.272331 576.886108,113.559875 574.078064,110.843864 
	C571.984741,108.819153 571.569458,106.138870 572.034973,103.463943 
	C572.487122,100.865456 573.421753,98.350929 574.383179,95.472427 
M588.742615,102.493759 
	C587.837585,97.815102 584.301147,95.635628 579.779358,96.969727 
	C576.580444,97.913536 574.984497,102.510857 576.429565,106.619347 
	C577.508728,109.687401 581.558228,110.692276 585.352783,108.946388 
	C587.838440,107.802704 588.359924,105.616287 588.742615,102.493759 
z"/>
</svg>